<svg width="9" height="16" viewBox="0 0 9 16" fill="none" xmlns="http://www.w3.org/2000/svg">
<path d="M0.610107 0.800019C0.501755 0.900473 0.414253 1.02129 0.352596 1.15556C0.29094 1.28984 0.256339 1.43494 0.250767 1.58259C0.245195 1.73024 0.268763 1.87754 0.320124 2.01608C0.371486 2.15462 0.449634 2.28169 0.550107 2.39002L5.84061 8.00002L0.550106 13.61C0.449645 13.7184 0.371507 13.8454 0.320154 13.984C0.268799 14.1225 0.245235 14.2698 0.250806 14.4174C0.256378 14.5651 0.290976 14.7102 0.352624 14.8445C0.414274 14.9787 0.501766 15.0996 0.610107 15.2C0.718447 15.3005 0.845514 15.3786 0.984052 15.43C1.12259 15.4813 1.26989 15.5049 1.41753 15.4993C1.56518 15.4937 1.71028 15.4592 1.84456 15.3975C1.97883 15.3359 2.09965 15.2484 2.20011 15.14L8.20011 8.76502C8.39304 8.55699 8.50024 8.28374 8.50024 8.00002C8.50024 7.7163 8.39304 7.44305 8.20011 7.23502L2.20011 0.860019C2.09965 0.751667 1.97884 0.664164 1.84456 0.602508C1.71029 0.540851 1.56518 0.506249 1.41753 0.500678C1.26989 0.495106 1.12259 0.518674 0.984047 0.570035C0.845508 0.621397 0.718441 0.699546 0.610107 0.800019Z" fill="#F97535"/>
</svg>
